<?xml version="1.0" encoding="UTF-8"?>
<svg width="408px" height="369px" viewBox="0 0 408 369" version="1.1" xmlns="http://www.w3.org/2000/svg" xmlns:xlink="http://www.w3.org/1999/xlink">
    <!-- Generator: Sketch 58 (84663) - https://sketch.com -->
    <title>the-eyes</title>
    <desc>Created with Sketch.</desc>
    <g id="the-eyes" stroke="none" stroke-width="1" fill="none" fill-rule="evenodd">
        <g id="Group" transform="translate(66.000000, 101.000000)" fill="#000000" fill-rule="nonzero">
            <polygon id="Path" points="-4.61852778e-14 89.1774194 54.9513742 89.1774194 54.9513742 112.282258 29.1638478 112.282258 29.1638478 120.870968 53.0063425 120.870968 53.0063425 142.282258 29.1638478 142.282258 29.1638478 151.354839 56.5317125 151.354839 56.5317125 174.822581 -4.61852778e-14 174.822581"></polygon>
            <polygon id="Path" points="118.035941 174.822581 88.0211416 174.822581 88.0211416 136.637097 60.0179704 89.1774194 90.5856237 89.1774194 103.028541 110.75 103.393235 110.75 112.200846 89.1774194 146.282241 89.1774194 118.035941 136.637097"></polygon>
            <polygon id="Path" points="152.172304 89.1774194 207.123679 89.1774194 207.123679 112.282258 181.336152 112.282258 181.336152 120.870968 205.178647 120.870968 205.178647 142.282258 181.336152 142.282258 181.336152 151.354839 208.704017 151.354839 208.704017 174.822581 152.172304 174.822581"></polygon>
            <path d="M245.465292,177 C242.029485,177 238.760746,176.737906 235.658976,176.21371 C232.557206,175.689514 229.694077,174.983875 227.069503,174.096774 C224.444928,173.209673 222.035128,172.201619 219.840029,171.072581 C217.64493,169.943543 215.783896,168.814522 214.256871,167.685484 L223.658437,145.01501 C225.853536,146.547276 233.750191,150.508065 236.374766,151.475806 C238.99934,152.443553 251.031048,155.261733 251.588358,149.835277 C251.959898,146.217639 247.351076,143.61027 237.761892,142.013168 C220.867075,138.406539 218.551608,124.235456 218.551608,115.91129 C218.551608,107.587125 225.597316,94.7250815 242.301467,89.8302365 C256.586049,85.6444017 280.761087,94.520096 282.256871,95.7096774 L273.440825,118.08871 C265.862893,110.768071 254.093621,110.768071 251.588358,111.960432 C249.083095,113.152794 246,117.479095 255.786075,120.515622 L258.349503,121.596774 C260.449162,122.483875 283.749018,124.44015 283.749018,147.691949 C283.749018,177 249.855489,177 245.465292,177 Z" id="Path"></path>
            <polygon id="Path" points="76.9137931 85 46.0862069 85 46.0862069 27.0903955 29 27.0903955 29 0 94 0 94 27.0903955 76.9137931 27.0903955"></polygon>
            <polygon id="Path" points="150.227273 53.4646893 131.772727 53.4646893 131.772727 85 101 85 101 0 131.772727 0 131.772727 28.0536723 150.227273 28.0536723 150.227273 0 181 0 181 85 150.227273 85"></polygon>
            <polygon id="Path" points="189 0 245.43734 0 245.43734 22.930791 217.882353 22.930791 217.882353 31.4548023 242.514066 31.4548023 242.514066 52.7048023 217.882353 52.7048023 217.882353 61.7090395 246 61.7090395 246 85 189 85"></polygon>
        </g>
    </g>
</svg>